<mxfile host="Electron" agent="Mozilla/5.0 (X11; Linux x86_64) AppleWebKit/537.36 (KHTML, like Gecko) draw.io/24.7.5 Chrome/126.0.6478.183 Electron/31.3.0 Safari/537.36" version="24.7.5">
  <diagram name="Page-1" id="c7558073-3199-34d8-9f00-42111426c3f3">
    <mxGraphModel dx="478" dy="278" grid="1" gridSize="10" guides="1" tooltips="1" connect="1" arrows="1" fold="1" page="1" pageScale="1" pageWidth="826" pageHeight="1169" background="none" math="0" shadow="0">
      <root>
        <mxCell id="0" />
        <mxCell id="1" parent="0" />
        <mxCell id="BvvS1RbtJpCHj6DvRc_L-35" value="" style="rounded=0;whiteSpace=wrap;html=1;fillColor=#D5E8D4;strokeColor=#82b366;" parent="1" vertex="1">
          <mxGeometry x="50" y="635" width="200" height="60" as="geometry" />
        </mxCell>
        <mxCell id="BvvS1RbtJpCHj6DvRc_L-69" style="edgeStyle=orthogonalEdgeStyle;shape=connector;rounded=0;orthogonalLoop=1;jettySize=auto;html=1;exitX=0.75;exitY=0;exitDx=0;exitDy=0;entryX=0.5;entryY=0;entryDx=0;entryDy=0;strokeColor=default;align=center;verticalAlign=middle;fontFamily=Helvetica;fontSize=11;fontColor=default;labelBackgroundColor=default;endArrow=classic;endFill=1;" parent="1" source="9HBcgen3dVJOL9bGBd_y-160" target="BvvS1RbtJpCHj6DvRc_L-68" edge="1">
          <mxGeometry relative="1" as="geometry">
            <Array as="points">
              <mxPoint x="178" y="500" />
              <mxPoint x="514" y="500" />
            </Array>
          </mxGeometry>
        </mxCell>
        <mxCell id="BvvS1RbtJpCHj6DvRc_L-79" value="V_teg" style="edgeLabel;html=1;align=center;verticalAlign=middle;resizable=0;points=[];fontFamily=Helvetica;fontSize=11;fontColor=default;labelBackgroundColor=default;" parent="BvvS1RbtJpCHj6DvRc_L-69" vertex="1" connectable="0">
          <mxGeometry x="0.1614" y="2" relative="1" as="geometry">
            <mxPoint x="-18" y="-8" as="offset" />
          </mxGeometry>
        </mxCell>
        <mxCell id="9HBcgen3dVJOL9bGBd_y-160" value="" style="rounded=0;whiteSpace=wrap;html=1;fontSize=16;fillColor=#f8cecc;strokeColor=#b85450;" parent="1" vertex="1">
          <mxGeometry x="95" y="540" width="110" height="15" as="geometry" />
        </mxCell>
        <mxCell id="BvvS1RbtJpCHj6DvRc_L-70" style="edgeStyle=orthogonalEdgeStyle;shape=connector;rounded=0;orthogonalLoop=1;jettySize=auto;html=1;exitX=0.75;exitY=1;exitDx=0;exitDy=0;entryX=0.5;entryY=1;entryDx=0;entryDy=0;strokeColor=default;align=center;verticalAlign=middle;fontFamily=Helvetica;fontSize=11;fontColor=default;labelBackgroundColor=default;endArrow=classic;endFill=1;" parent="1" source="9HBcgen3dVJOL9bGBd_y-161" target="BvvS1RbtJpCHj6DvRc_L-68" edge="1">
          <mxGeometry relative="1" as="geometry">
            <Array as="points">
              <mxPoint x="178" y="620" />
              <mxPoint x="514" y="620" />
            </Array>
          </mxGeometry>
        </mxCell>
        <mxCell id="BvvS1RbtJpCHj6DvRc_L-78" value="GND" style="edgeLabel;html=1;align=center;verticalAlign=middle;resizable=0;points=[];fontFamily=Helvetica;fontSize=11;fontColor=default;labelBackgroundColor=default;" parent="BvvS1RbtJpCHj6DvRc_L-70" vertex="1" connectable="0">
          <mxGeometry x="0.1246" y="1" relative="1" as="geometry">
            <mxPoint x="-11" y="11" as="offset" />
          </mxGeometry>
        </mxCell>
        <mxCell id="9HBcgen3dVJOL9bGBd_y-161" value="" style="rounded=0;whiteSpace=wrap;html=1;fontSize=16;fillColor=#dae8fc;strokeColor=#6c8ebf;" parent="1" vertex="1">
          <mxGeometry x="95" y="562.5" width="110" height="15" as="geometry" />
        </mxCell>
        <mxCell id="9HBcgen3dVJOL9bGBd_y-164" value="" style="shape=mxgraph.pid.heat_exchangers.heat_exchanger_(straight_tubes);html=1;pointerEvents=1;align=center;verticalLabelPosition=bottom;verticalAlign=top;dashed=0;fontFamily=Helvetica;fontSize=16;labelBackgroundColor=default;fillColor=#F8CECC;strokeColor=#b85450;" parent="1" vertex="1">
          <mxGeometry x="35" y="420" width="230" height="60" as="geometry" />
        </mxCell>
        <mxCell id="9HBcgen3dVJOL9bGBd_y-165" value="BODY" style="text;html=1;align=center;verticalAlign=middle;whiteSpace=wrap;rounded=0;fontFamily=Helvetica;fontSize=16;labelBackgroundColor=#F8CECC;fillColor=#f8cecc;strokeColor=#b85450;" parent="1" vertex="1">
          <mxGeometry x="85" y="435" width="130" height="30" as="geometry" />
        </mxCell>
        <mxCell id="9HBcgen3dVJOL9bGBd_y-166" value="AMBIENT TEMPERATURE" style="text;html=1;align=center;verticalAlign=middle;whiteSpace=wrap;rounded=0;fontFamily=Helvetica;fontSize=16;fontColor=default;labelBackgroundColor=#D5E8D4;fillColor=#D5E8D4;" parent="1" vertex="1">
          <mxGeometry x="55" y="650" width="190" height="30" as="geometry" />
        </mxCell>
        <mxCell id="9HBcgen3dVJOL9bGBd_y-167" value="&lt;b&gt;TEG&lt;/b&gt;" style="text;html=1;align=center;verticalAlign=middle;whiteSpace=wrap;rounded=0;fontFamily=Helvetica;fontSize=16;fontColor=default;labelBackgroundColor=default;" parent="1" vertex="1">
          <mxGeometry x="35" y="543.75" width="60" height="30" as="geometry" />
        </mxCell>
        <mxCell id="BvvS1RbtJpCHj6DvRc_L-34" value="&lt;font style=&quot;font-size: 18px;&quot;&gt;MCU&lt;/font&gt;" style="rounded=0;whiteSpace=wrap;html=1;labelBackgroundColor=default;fontSize=16;" parent="1" vertex="1">
          <mxGeometry x="300" y="517.5" width="90" height="82.5" as="geometry" />
        </mxCell>
        <mxCell id="BvvS1RbtJpCHj6DvRc_L-42" style="edgeStyle=orthogonalEdgeStyle;rounded=0;orthogonalLoop=1;jettySize=auto;html=1;entryX=0.014;entryY=0.37;entryDx=0;entryDy=0;entryPerimeter=0;" parent="1" source="9HBcgen3dVJOL9bGBd_y-160" target="BvvS1RbtJpCHj6DvRc_L-34" edge="1">
          <mxGeometry relative="1" as="geometry" />
        </mxCell>
        <mxCell id="BvvS1RbtJpCHj6DvRc_L-44" style="edgeStyle=orthogonalEdgeStyle;rounded=0;orthogonalLoop=1;jettySize=auto;html=1;entryX=-0.013;entryY=0.629;entryDx=0;entryDy=0;entryPerimeter=0;" parent="1" source="9HBcgen3dVJOL9bGBd_y-161" target="BvvS1RbtJpCHj6DvRc_L-34" edge="1">
          <mxGeometry relative="1" as="geometry" />
        </mxCell>
        <mxCell id="BvvS1RbtJpCHj6DvRc_L-45" value="thermocouples" style="edgeLabel;html=1;align=center;verticalAlign=middle;resizable=0;points=[];fontFamily=Helvetica;fontSize=11;fontColor=default;labelBackgroundColor=default;" parent="BvvS1RbtJpCHj6DvRc_L-44" vertex="1" connectable="0">
          <mxGeometry x="0.1161" y="-3" relative="1" as="geometry">
            <mxPoint x="-7" y="-14" as="offset" />
          </mxGeometry>
        </mxCell>
        <mxCell id="BvvS1RbtJpCHj6DvRc_L-75" style="edgeStyle=orthogonalEdgeStyle;shape=connector;rounded=0;orthogonalLoop=1;jettySize=auto;html=1;exitX=0;exitY=0.5;exitDx=0;exitDy=0;entryX=1;entryY=0.5;entryDx=0;entryDy=0;strokeColor=default;align=center;verticalAlign=middle;fontFamily=Helvetica;fontSize=11;fontColor=default;labelBackgroundColor=default;endArrow=classic;endFill=1;" parent="1" source="BvvS1RbtJpCHj6DvRc_L-68" target="BvvS1RbtJpCHj6DvRc_L-34" edge="1">
          <mxGeometry relative="1" as="geometry" />
        </mxCell>
        <mxCell id="BvvS1RbtJpCHj6DvRc_L-76" value="GND" style="edgeLabel;html=1;align=center;verticalAlign=middle;resizable=0;points=[];fontFamily=Helvetica;fontSize=11;fontColor=default;labelBackgroundColor=default;" parent="BvvS1RbtJpCHj6DvRc_L-75" vertex="1" connectable="0">
          <mxGeometry x="0.0721" relative="1" as="geometry">
            <mxPoint x="-8" as="offset" />
          </mxGeometry>
        </mxCell>
        <mxCell id="e7qH7rkz0sY92ue54EvF-2" style="edgeStyle=orthogonalEdgeStyle;rounded=0;orthogonalLoop=1;jettySize=auto;html=1;exitX=0;exitY=1;exitDx=0;exitDy=0;entryX=1;entryY=0.75;entryDx=0;entryDy=0;" edge="1" parent="1" source="BvvS1RbtJpCHj6DvRc_L-68" target="BvvS1RbtJpCHj6DvRc_L-34">
          <mxGeometry relative="1" as="geometry">
            <Array as="points">
              <mxPoint x="470" y="580" />
              <mxPoint x="430" y="580" />
            </Array>
          </mxGeometry>
        </mxCell>
        <mxCell id="e7qH7rkz0sY92ue54EvF-3" value="ADC" style="edgeLabel;html=1;align=center;verticalAlign=middle;resizable=0;points=[];" vertex="1" connectable="0" parent="e7qH7rkz0sY92ue54EvF-2">
          <mxGeometry x="0.1557" y="-3" relative="1" as="geometry">
            <mxPoint x="-7" y="1" as="offset" />
          </mxGeometry>
        </mxCell>
        <mxCell id="BvvS1RbtJpCHj6DvRc_L-68" value="&lt;div&gt;booster board&lt;/div&gt;BQ25570" style="rounded=0;whiteSpace=wrap;html=1;fontFamily=Helvetica;fontSize=11;fontColor=default;labelBackgroundColor=default;" parent="1" vertex="1">
          <mxGeometry x="470" y="531.3100000000001" width="87" height="54.87" as="geometry" />
        </mxCell>
        <mxCell id="BvvS1RbtJpCHj6DvRc_L-71" style="edgeStyle=orthogonalEdgeStyle;shape=connector;rounded=0;orthogonalLoop=1;jettySize=auto;html=1;exitX=0;exitY=0.25;exitDx=0;exitDy=0;entryX=1.009;entryY=0.336;entryDx=0;entryDy=0;entryPerimeter=0;strokeColor=default;align=center;verticalAlign=middle;fontFamily=Helvetica;fontSize=11;fontColor=default;labelBackgroundColor=default;endArrow=classic;endFill=1;" parent="1" source="BvvS1RbtJpCHj6DvRc_L-68" target="BvvS1RbtJpCHj6DvRc_L-34" edge="1">
          <mxGeometry relative="1" as="geometry" />
        </mxCell>
        <mxCell id="BvvS1RbtJpCHj6DvRc_L-77" value="VCC" style="edgeLabel;html=1;align=center;verticalAlign=middle;resizable=0;points=[];fontFamily=Helvetica;fontSize=11;fontColor=default;labelBackgroundColor=default;" parent="BvvS1RbtJpCHj6DvRc_L-71" vertex="1" connectable="0">
          <mxGeometry x="0.0787" relative="1" as="geometry">
            <mxPoint x="-8" y="-1" as="offset" />
          </mxGeometry>
        </mxCell>
      </root>
    </mxGraphModel>
  </diagram>
</mxfile>
